# Blender v2.79 (sub 0) OBJ File: ''
# www.blender.org
mtllib 4.mtl
o MeshObject_Mesh.001
v 0.013088 2.133543 0.094527
v 0.027559 2.117064 0.095237
v 0.011523 2.128045 0.088616
v 0.000351 2.143338 0.093540
v -0.010821 2.128045 0.088616
v -0.026857 2.117064 0.095237
v -0.012386 2.133543 0.094527
v 0.000351 2.143338 0.093540
v 0.000351 2.148124 0.098674
v 0.013088 2.133543 0.094527
v 0.000351 2.148124 0.098674
v 0.000351 2.109415 0.104701
v 0.027559 2.117064 0.095237
v -0.012386 2.133543 0.094527
v 0.000351 2.109415 0.104701
v 0.000351 2.148124 0.098674
v -0.026857 2.117064 0.095237
vt 0.097290 0.989029
vt 0.105408 0.981339
vt 0.101562 0.990990
vt 0.093140 0.996607
vt 0.101562 0.990990
vt 0.105408 0.981339
vt 0.097290 0.989029
vt 0.093140 0.996607
vt 0.089050 0.996063
vt 0.039764 0.959290
vt 0.005100 0.992481
vt 0.005100 0.899536
vt 0.075073 0.919434
vt 0.039764 0.959290
vt 0.005100 0.899536
vt 0.005100 0.992481
vt 0.075073 0.919434
vn 0.5354 0.5431 -0.6468
vn 0.6002 0.5002 -0.6241
vn 0.5598 0.5276 -0.6389
vn 0.4895 0.5701 -0.6598
vn -0.5598 0.5276 -0.6390
vn -0.6002 0.5002 -0.6241
vn -0.5345 0.5514 -0.6405
vn -0.5183 0.6140 -0.5953
vn -0.5241 0.6230 -0.5807
vn 0.3703 0.1881 0.9097
vn 0.4457 0.1377 0.8845
vn 0.3313 0.2127 0.9192
vn 0.2510 0.2606 0.9322
vn -0.3703 0.1881 0.9097
vn -0.3313 0.2127 0.9192
vn -0.4457 0.1377 0.8845
vn -0.2510 0.2606 0.9322
usemtl Material.001
s 1
f 1/1/1 2/2/2 3/3/3
f 3/3/3 4/4/4 1/1/1
f 5/5/5 6/6/6 7/7/7
f 5/5/5 7/7/7 8/8/8
f 8/8/8 7/7/7 9/9/9
f 10/10/10 11/11/11 12/12/12
f 10/10/10 12/12/12 13/13/13
f 14/14/14 15/15/15 16/16/16
f 14/14/14 17/17/17 15/15/15
